inDegrees=no
num_controls=7
num_derivatives=13
num_iterations=128
num_multipliers=7
num_parameters=0
num_slacks=7
num_states=26
objective=0.486622
objective_accelerations=0.030708
objective_balance=0.003363
objective_effort=0.029680
objective_height=0.416727
objective_ligament=0.006144
solver_duration=1794.840291
status=Solve_Succeeded
success=true
DataType=double
version=3
OpenSimVersion=4.5
endheader
time	/jointset/ground_pelvis/pelvis_tilt/value	/jointset/ground_pelvis/pelvis_tx/value	/jointset/ground_pelvis/pelvis_ty/value	/jointset/hip_l/hip_flexion_l/value	/jointset/hip_l/hip_adduction_l/value	/jointset/hip_l/hip_rotation_l/value	/jointset/back/lumbar_extension/value	/jointset/patellofemoral_l/patellar_flexion_l/value	/jointset/knee_l/knee_flexion_l/value	/jointset/knee_l/knee_adduction_l/value	/jointset/knee_l/knee_rotation_l/value	/jointset/ankle_l/ankle_angle_l/value	/jointset/subtalar_l/subtalar_angle_l/value	/jointset/ground_pelvis/pelvis_tilt/speed	/jointset/ground_pelvis/pelvis_tx/speed	/jointset/ground_pelvis/pelvis_ty/speed	/jointset/hip_l/hip_flexion_l/speed	/jointset/hip_l/hip_adduction_l/speed	/jointset/hip_l/hip_rotation_l/speed	/jointset/back/lumbar_extension/speed	/jointset/patellofemoral_l/patellar_flexion_l/speed	/jointset/knee_l/knee_flexion_l/speed	/jointset/knee_l/knee_adduction_l/speed	/jointset/knee_l/knee_rotation_l/speed	/jointset/ankle_l/ankle_angle_l/speed	/jointset/subtalar_l/subtalar_angle_l/speed	/forceset/tau_hip_flexion_l	/forceset/tau_hip_adduction_l	/forceset/tau_hip_rotation_l	/forceset/tau_knee_flexion_l	/forceset/tau_ankle_angle_l	/forceset/tau_subtalar_angle_l	/forceset/tau_lumbar_extension	lambda_cid13_p0	lambda_cid13_p1	lambda_cid13_p2	lambda_cid13_p3	lambda_cid13_p4	lambda_cid13_p5	lambda_cid14_p0	/jointset/ground_pelvis/pelvis_tilt/accel	/jointset/ground_pelvis/pelvis_tx/accel	/jointset/ground_pelvis/pelvis_ty/accel	/jointset/hip_l/hip_flexion_l/accel	/jointset/hip_l/hip_adduction_l/accel	/jointset/hip_l/hip_rotation_l/accel	/jointset/back/lumbar_extension/accel	/jointset/patellofemoral_l/patellar_flexion_l/accel	/jointset/knee_l/knee_flexion_l/accel	/jointset/knee_l/knee_adduction_l/accel	/jointset/knee_l/knee_rotation_l/accel	/jointset/ankle_l/ankle_angle_l/accel	/jointset/subtalar_l/subtalar_angle_l/accel	gamma_cid13_p0	gamma_cid13_p1	gamma_cid13_p2	gamma_cid13_p3	gamma_cid13_p4	gamma_cid13_p5	gamma_cid14_p0
0	-0.03682187485505361	0.05667704722726827	0.9203416031984157	0.3085816938045678	-0.2956397586367773	-0.3015947142448208	-0.3879492264334186	0.2499269421184906	0.2499269421184919	-0.1745328689723319	-0.1745203568176714	-0.0008036623358878681	0.0004381832282116949	0	0	0	0	0	0	0	0	0	0	0	0	0	0.0510317704968091	-0.03808422369039945	-0.01963058107797968	-0.2408112856046995	0.2041207667841971	-0.01597042345166056	0.02776902025449673	21.17484452307559	0.6844368245230477	2.342384521822287	-1.777011457267515	-642.5530103946969	-71.66541924840354	-23.19654866920267	-0.2037822235274611	-1.389939171787121	-0.6085716561017929	5.974832936725182	-0.6490225377881645	2.398902240892457	-6.22696445865002	6.735485270554064	6.735485270554581	0.8196127563791952	-0.05773896874787018	1.322014937014611	-0.2447476204586785	-1.258298086145911e-09	6.730827527679832e-08	4.082818585449372e-08	-7.274229020718275e-09	5.967889329867902e-08	-5.226409468843431e-09	-6.429463549008208e-10
0.01	-0.03683005991199702	0.05660902089279437	0.9203118978233917	0.3088723074136697	-0.2956721942975463	-0.3014741600759338	-0.3882590877758842	0.2502568945380527	0.2502568945380515	-0.1744943075935249	-0.1745205419827934	-0.0007385881565140531	0.0004255989675801881	-0.001651853291782238	-0.01347212729348195	-0.005913279732430317	0.05779954700754519	-0.006448557733527738	0.02400777596574619	-0.06159801254776658	0.06569532853520595	0.06569532853520771	0.00768880696045401	-2.382223652597401e-05	0.01305197119519806	-0.002463142348252457	0.04950436557268839	-0.04973691098221965	-0.01964797922686186	-0.2424331073708328	0.2045910531136719	-0.004900718725945612	0.03016908871142299	21.66671625550343	-4.076054089328018	2.949184729274873	-3.870204541670386	-644.7376590711123	-81.62624846322123	-23.20037939395354	-0.1481177675583839	-1.305880022724579	-0.5785249051795489	5.634035912300315	-0.6370032062176543	2.386253851297867	-6.070081261062842	6.442283466998435	6.442283466998403	0.7400100363867689	0.02728250114231446	1.302360321318231	-0.2390565797343158	-1.934902532170141e-08	6.262309639689483e-08	8.272708158762756e-08	9.630273888507446e-09	-6.895863095260902e-09	-3.450730371626068e-08	-6.09653679805534e-09
0.02	-0.03685520967896851	0.05641026718246653	0.9202238958963703	0.3097312205587545	-0.2957679616986674	-0.3011166204320137	-0.3891737015654722	0.2512349456073654	0.2512349456073655	-0.1743795590710137	-0.174520568099833	-0.0005418798430791456	0.0003899914759209927	-0.003392942005761815	-0.02614547517078592	-0.01165931039949149	0.1136599071963341	-0.01266634807036028	0.04739709500677911	-0.1209504894244505	0.1296197299501947	0.1296197299501968	0.01523742874124026	3.180961683936554e-05	0.02632682681222948	-0.004604646205535646	0.04797696064858079	-0.06138959827403332	-0.01966537737573677	-0.2440549291369555	0.2050613394431529	0.006168985999778071	0.03256915716835211	22.20989506899589	-8.845067600650566	3.556817374795203	-6.058883387500726	-646.1653620470801	-91.52190040794164	-23.2116436012022	-0.2216293079669527	-1.230183288551504	-0.5751218430279639	5.586995572973928	-0.6028690584491257	2.275210855949803	-5.777857324433499	6.381299846510627	6.381299846510848	0.7915757204456414	-0.04184815076960397	1.366591821381305	-0.1804199222648176	-3.743975255725691e-08	5.793791751699133e-08	1.246259773207614e-07	2.653477679773317e-08	-7.347061948920083e-08	-6.378819796367791e-08	-1.155012724120986e-08
0.03	-0.03689765728707983	0.05608811281732189	0.9200791605291802	0.3111392031923405	-0.295924627983998	-0.3005290160270515	-0.3906697350626742	0.2528432536466146	0.2528432536466141	-0.1741899245562322	-0.174520265366913	-0.0002122509004450224	0.0003343833435086463	-0.005042979320497338	-0.03821835760413128	-0.01726872490750241	0.1676139929084287	-0.01861805434985159	0.07000054258185685	-0.1778078674033972	0.1917258065023237	0.1917258065023183	0.02266571021007922	3.218261422303873e-05	0.03954281500259755	-0.006485235929410102	0.03999895546565681	-0.0532112497177915	-0.0184751998802449	-0.2350390727730053	0.1949703202886086	0.0043670070707742	0.03915601637261197	18.82143191573864	-7.593951762580609	3.499882727786826	-4.339792220944091	-647.8337129977127	-87.95970977322058	-23.22992142149381	-0.1286545690324332	-1.185779307316114	-0.5510104981426742	5.251215605715013	-0.5840183314868659	2.234408807610102	-5.572426642767567	6.077853181992715	6.077853181991455	0.7149120835156011	0.02151662629911833	1.290679631549057	-0.1871402132346559	-4.974304365307244e-08	4.851433987959582e-08	1.520769283354585e-07	3.908082201261654e-08	-1.273827744637212e-07	-8.335307552922878e-08	-1.534460676245581e-08
0.04	-0.03695499799349915	0.05564724191052583	0.9198788991682189	0.3130770467901255	-0.2961393507158815	-0.2997190777264745	-0.3927208920612942	0.2550631407758718	0.2550631407758722	-0.1739267156820821	-0.1745198515837569	0.0002478533868296804	0.0002609169707003709	-0.006371561667462312	-0.04988878350106803	-0.02276450915370436	0.2196321000360335	-0.0242776373808546	0.09186387412986852	-0.2319751897080391	0.2519355479516002	0.251935547951586	0.02995230061542306	5.401966387740667e-05	0.05242189574034566	-0.008176294284719721	0.03202095028274275	-0.04503290116154154	-0.01728502238475997	-0.226023216409044	0.184879301134071	0.002565028141781093	0.04574287557687155	15.4812613588981	-6.34892086085588	3.441210504955151	-2.716921689471002	-648.7995891990356	-84.33395584003594	-23.2547099797872	-0.1573383144128672	-1.149691981269764	-0.5523957906661696	5.199799856075949	-0.544444408751464	2.127187650536586	-5.239846189572544	6.002032825940155	6.002032825940104	0.7632375077466187	-0.03755534031546025	1.299210330857331	-0.1425136485518425	-6.192700616868713e-08	3.899306329874686e-08	1.792299835827652e-07	5.153700212040006e-08	-1.810338448728928e-07	-1.027176228539164e-07	-1.910487781108509e-08
0.05	-0.03702446619983379	0.05509147073146356	0.9196240522953705	0.3155265329009791	-0.2964093400397215	-0.2986942392891905	-0.3953017198050582	0.2578762877571871	0.2578762877571883	-0.1735915252660709	-0.1745193961239242	0.0008349495678256188	0.0001713074905283388	-0.007497245022389204	-0.06121836119127472	-0.02820203060542015	0.2700231099433882	-0.02968595273827224	0.1129972147210832	-0.2839035643441067	0.3104164624703782	0.3104164624703722	0.03703225590478153	3.839309476664494e-05	0.06492155929482482	-0.009736388846252803	0.02657953619395325	-0.04326763278043255	-0.01645940547669266	-0.2207991069355703	0.1775543302108944	0.004770267303963692	0.05025642121663895	13.19573825661756	-6.949117218875848	3.585602749392189	-1.656621681114828	-649.3344970203866	-84.91497740498826	-23.28537815471998	-0.08646020452667626	-1.117516586772898	-0.539041741152769	4.922443548376912	-0.5339115791158122	2.09039143880395	-5.126313895551053	5.729516740012651	5.72951674001393	0.6723695370952814	0.01666188822949083	1.213974725462793	-0.1614018033207693	-7.047416649536498e-08	1.80343206900182e-08	2.088525611932894e-07	5.645124093278495e-08	-2.136800719838823e-07	-1.246486432220843e-07	-2.457568837433392e-08
0.06	-0.03710444661141588	0.05442381859072395	0.9193149079242593	0.3184726675089685	-0.2967323898131113	-0.2974612706109162	-0.3983932274541682	0.2612659230787243	0.2612659230787241	-0.1731871362976525	-0.1745190512890923	0.001544768455910273	6.636817606763447e-05	-0.008474002717082216	-0.07226497583653807	-0.0336240088062647	0.3189617994632115	-0.03488972729084529	0.1334899223278992	-0.3341111707772638	0.3672332159957974	0.3672332159958	0.043792011096733	3.189466319093421e-05	0.07696643715808729	-0.01124226114245484	0.02113812210515911	-0.04150236439932475	-0.01563378856863421	-0.2155749974620981	0.1702293592877166	0.006975506466144774	0.05476996685640354	10.95408304702222	-7.555819761512303	3.729690523167038	-0.6858717974875937	-649.2283265608273	-85.44007250945646	-23.32126294772563	-0.1275531823661158	-1.093099372281072	-0.5492871404919208	4.909335778569658	-0.5035362477825468	1.999061053656827	-4.895692548990415	5.669200627268415	5.66920062726842	0.6991974882652203	-0.03572971280844277	1.208253192614016	-0.1316691954856245	-7.886819830882441e-08	-3.405999435673812e-09	2.385791186927911e-07	6.104792432220568e-08	-2.454418846402114e-07	-1.466877256131356e-07	-3.011852165398778e-08
